<svg width="24" height="25" viewBox="0 0 24 25" fill="none" xmlns="http://www.w3.org/2000/svg">
<path fill-rule="evenodd" clip-rule="evenodd" d="M6.75 2.48047C7.16421 2.48047 7.5 2.81626 7.5 3.23047V4.73047H16.5V3.23047C16.5 2.81626 16.8358 2.48047 17.25 2.48047C17.6642 2.48047 18 2.81626 18 3.23047V4.73047H18.75C20.4069 4.73047 21.75 6.07361 21.75 7.73047V18.9805C21.75 20.6373 20.4069 21.9805 18.75 21.9805H5.25C3.59315 21.9805 2.25 20.6373 2.25 18.9805V7.73047C2.25 6.07361 3.59315 4.73047 5.25 4.73047H6V3.23047C6 2.81626 6.33579 2.48047 6.75 2.48047ZM20.25 11.4805C20.25 10.652 19.5784 9.98047 18.75 9.98047H5.25C4.42157 9.98047 3.75 10.652 3.75 11.4805V18.9805C3.75 19.8089 4.42157 20.4805 5.25 20.4805H18.75C19.5784 20.4805 20.25 19.8089 20.25 18.9805V11.4805Z" fill="#545454"/>
</svg>
