<svg width="24" height="25" viewBox="0 0 24 25" fill="none" xmlns="http://www.w3.org/2000/svg">
<path d="M18.75 21.2305H14.1131C14.892 20.535 15.6266 19.7913 16.3125 19.0039C18.8859 16.0442 20.25 12.9242 20.25 9.98047C20.25 7.79243 19.3808 5.69401 17.8336 4.14684C16.2865 2.59966 14.188 1.73047 12 1.73047C9.81196 1.73047 7.71354 2.59966 6.16637 4.14684C4.61919 5.69401 3.75 7.79243 3.75 9.98047C3.75 12.9242 5.11031 16.0442 7.6875 19.0039C8.37338 19.7913 9.10795 20.535 9.88688 21.2305H5.25C5.05109 21.2305 4.86032 21.3095 4.71967 21.4501C4.57902 21.5908 4.5 21.7816 4.5 21.9805C4.5 22.1794 4.57902 22.3701 4.71967 22.5108C4.86032 22.6515 5.05109 22.7305 5.25 22.7305H18.75C18.9489 22.7305 19.1397 22.6515 19.2803 22.5108C19.421 22.3701 19.5 22.1794 19.5 21.9805C19.5 21.7816 19.421 21.5908 19.2803 21.4501C19.1397 21.3095 18.9489 21.2305 18.75 21.2305ZM5.25 9.98047C5.25 8.19026 5.96116 6.47337 7.22703 5.2075C8.4929 3.94163 10.2098 3.23047 12 3.23047C13.7902 3.23047 15.5071 3.94163 16.773 5.2075C18.0388 6.47337 18.75 8.19026 18.75 9.98047C18.75 15.3458 13.5497 19.8242 12 21.043C10.4503 19.8242 5.25 15.3458 5.25 9.98047ZM15.75 9.98047C15.75 9.23879 15.5301 8.51376 15.118 7.89708C14.706 7.2804 14.1203 6.79975 13.4351 6.51592C12.7498 6.23209 11.9958 6.15783 11.2684 6.30252C10.541 6.44722 9.8728 6.80437 9.34835 7.32882C8.8239 7.85327 8.46675 8.52145 8.32205 9.24888C8.17736 9.97631 8.25162 10.7303 8.53545 11.4155C8.81928 12.1008 9.29993 12.6864 9.91661 13.0985C10.5333 13.5105 11.2583 13.7305 12 13.7305C12.9946 13.7305 13.9484 13.3354 14.6517 12.6321C15.3549 11.9289 15.75 10.975 15.75 9.98047ZM9.75 9.98047C9.75 9.53546 9.88196 9.10045 10.1292 8.73044C10.3764 8.36042 10.7278 8.07204 11.139 7.90174C11.5501 7.73144 12.0025 7.68688 12.439 7.7737C12.8754 7.86052 13.2763 8.07481 13.591 8.38948C13.9057 8.70415 14.12 9.10506 14.2068 9.54152C14.2936 9.97797 14.249 10.4304 14.0787 10.8415C13.9084 11.2526 13.62 11.604 13.25 11.8513C12.88 12.0985 12.445 12.2305 12 12.2305C11.4033 12.2305 10.831 11.9934 10.409 11.5715C9.98705 11.1495 9.75 10.5772 9.75 9.98047Z" fill="#545454"/>
</svg>
