<svg width="209" height="50" viewBox="0 0 209 50" fill="none" xmlns="http://www.w3.org/2000/svg">
<g clip-path="url(#clip0_3134_2939)">
<path d="M88.7401 22.2527C90.3616 20.7891 92.3435 20.0723 94.7155 20.0723C97.1177 20.0723 99.0996 20.7891 100.721 22.2527C102.342 23.6864 103.153 25.5681 103.153 27.8681C103.153 30.1381 102.342 32.0197 100.721 33.4533C99.1295 34.8573 97.1478 35.5741 94.7457 35.5741C92.3435 35.5741 90.3616 34.8573 88.7401 33.4533C87.1487 32.0197 86.3379 30.1381 86.3379 27.8681C86.3379 25.5681 87.1487 23.6864 88.7401 22.2527ZM94.7457 31.4224C96.6373 31.4224 98.1387 30.0184 98.1387 27.8681C98.1387 25.6875 96.6373 24.224 94.7457 24.224C92.8538 24.224 91.3525 25.6875 91.3525 27.8681C91.3525 30.0184 92.884 31.4224 94.7457 31.4224Z" fill="black"/>
<path d="M114.474 20.0723C112.372 20.0723 110.78 20.9384 109.759 22.641H109.699L109.729 22.2826V22.0735C109.729 21.0281 109.009 20.4008 107.657 20.4008H103.213V24.5824H104.324C104.775 24.5824 104.955 24.7916 104.955 25.2097V35.2157H109.969V28.6446C109.969 27.8978 110.06 27.2408 110.27 26.7032C110.75 25.2992 111.741 24.5824 113.212 24.5824C114.323 24.5824 114.864 25.2395 114.864 26.5238V33.1249C114.864 34.5884 115.495 35.2157 116.966 35.2157H119.848V25.6278C119.848 21.8943 118.047 20.0723 114.474 20.0723Z" fill="black"/>
<path d="M123.422 14.6655V18.6978H127.626V14.6655H123.422ZM125.944 20.4003H121.32V24.582H122.431C122.851 24.582 123.061 24.7909 123.061 25.209V33.1242C123.061 34.588 123.692 35.215 125.163 35.215H128.046V22.5209C128.046 21.0276 127.415 20.4003 125.944 20.4003Z" fill="black"/>
<path d="M131.919 22.2826C133.331 20.8189 135.223 20.0723 137.565 20.0723C139.697 20.0723 141.378 20.7294 142.609 22.0735C143.84 23.3878 144.471 25.12 144.471 27.2108C144.471 27.5692 144.441 28.077 144.351 28.764H134.952C135.313 30.4965 136.724 31.4224 138.436 31.4224C139.667 31.4224 141.048 30.9443 142.549 29.9289L144.411 33.4235C142.819 34.7676 140.357 35.5741 138.045 35.5741C135.523 35.5741 133.541 34.7976 132.07 33.2741C130.598 31.7508 129.878 29.8989 129.878 27.8081C129.818 25.598 130.508 23.7462 131.919 22.2826ZM139.516 25.9265C139.516 24.6721 138.706 23.7162 137.475 23.7162C136.213 23.7162 135.403 24.4629 135.072 25.9265H139.516Z" fill="black"/>
<path d="M146.243 20.6695H148.855V21.9539C148.855 22.5512 148.765 23.059 148.765 23.059H148.825C149.756 21.2966 151.618 20.311 153.749 20.311C157.713 20.311 160.175 23.4174 160.175 27.9275C160.175 32.5572 157.383 35.544 153.539 35.544C151.678 35.544 149.996 34.618 149.005 33.065H148.945C148.945 33.065 149.065 33.5726 149.065 34.3194V40.9502H146.273V20.6695H146.243ZM153.119 33.1545C155.431 33.1545 157.353 31.2728 157.353 27.9872C157.353 24.8212 155.641 22.7901 153.209 22.7901C151.017 22.7901 148.975 24.3433 148.975 28.0172C148.975 30.5858 150.417 33.1545 153.119 33.1545Z" fill="black"/>
<path d="M169.394 20.311C173.778 20.311 177.291 23.5069 177.291 27.8977C177.291 32.3182 173.748 35.544 169.424 35.544C165.04 35.544 161.527 32.3182 161.527 27.8977C161.527 23.5069 165.07 20.311 169.394 20.311ZM169.424 33.1545C172.186 33.1545 174.469 30.9742 174.469 27.9275C174.469 24.9107 172.186 22.7603 169.424 22.7603C166.631 22.7603 164.379 24.9107 164.379 27.9275C164.41 30.9742 166.662 33.1545 169.424 33.1545Z" fill="black"/>
<path d="M179.483 14.9048H182.366V17.7124H179.483V14.9048ZM179.543 20.6694H182.335V35.2454H179.543V20.6694Z" fill="black"/>
<path d="M185.489 20.6695H188.221V22.6409C188.221 23.2382 188.131 23.746 188.131 23.746H188.191C188.732 22.4914 190.533 20.311 193.746 20.311C197.2 20.311 198.761 22.1928 198.761 25.8964V35.2155H195.968V26.5237C195.968 24.4926 195.578 22.8798 193.206 22.8798C190.353 22.8798 188.311 25.2393 188.311 28.2261V35.2155H185.519V20.6695H185.489Z" fill="black"/>
<path d="M202.394 23.0892H200.472V20.8192H202.454V16.6675H205.216V20.8192H208.76V23.0892H205.216V29.6006C205.216 32.4979 207.259 32.8861 208.34 32.8861C208.549 32.8861 208.729 32.8861 209 32.8263V35.3055C208.76 35.3353 208.458 35.395 208.009 35.395C206.118 35.395 202.394 34.7977 202.394 29.9292V23.0892Z" fill="black"/>
<path d="M84.7467 26.4336L83.7858 14.6655H77.9305C77.9305 14.6655 73.4564 23.7455 73.096 24.9701H73.0359L68.3516 14.6655H62.4963L61.5354 24.8806L60.7246 35.245H64.2979C65.8294 35.245 66.4599 34.588 66.5801 32.975C66.5801 32.975 67.1806 23.4768 67.0906 22.1028H67.1505L67.3308 22.7301C67.571 23.5663 70.9041 31.6607 70.9041 31.6607H75.288C75.288 31.6607 78.6211 23.6858 79.0413 22.1028H79.1014L79.6119 32.975C79.7321 34.588 80.3626 35.245 81.8941 35.245H85.4672L84.7467 26.4336Z" fill="black"/>
<path d="M25.2232 50H25.0429C13.3923 49.9702 5.58512 47.5508 3.96364 46.0573C2.25205 44.534 0 36.6488 0 25.0001C0 13.3811 2.25205 5.46595 3.96364 3.94265C5.58512 2.44923 13.4223 0.0298685 25.0429 0H25.2232C36.8738 0.0298685 44.6809 2.44923 46.3024 3.94265C48.014 5.46595 50.266 13.3811 50.266 25.0001C50.266 36.6189 48.014 44.534 46.3024 46.0573C44.6809 47.5808 36.8738 50 25.2232 50Z" fill="#0357EE"/>
<path d="M36.7235 26.4926L35.7626 14.814H29.9672C29.9672 14.814 25.5531 23.8045 25.1628 25.0291H25.1027L20.4485 14.814H14.6232L13.6623 24.9394L12.8516 35.2142H16.3948C17.9262 35.2142 18.5267 34.5572 18.6469 32.9442C18.6469 32.9442 19.2474 23.5356 19.1573 22.1617H19.2174L19.3975 22.7888C19.6378 23.6253 22.9407 31.6599 22.9407 31.6599H27.2947C27.2947 31.6599 30.5979 23.7447 31.0181 22.1617H31.0782L31.5887 32.9442C31.7089 34.5572 32.3394 35.2142 33.8407 35.2142H37.3839L36.7235 26.4926Z" fill="white"/>
</g>
<defs>
<clipPath id="clip0_3134_2939">
<rect width="209" height="50" fill="white"/>
</clipPath>
</defs>
</svg>
