<svg width="202" height="48" viewBox="0 0 202 48" fill="none" xmlns="http://www.w3.org/2000/svg">
<g clip-path="url(#clip0_3134_2939)">
<path d="M85.7033 21.3622C87.2628 19.9572 89.1688 19.269 91.45 19.269C93.7603 19.269 95.6663 19.9572 97.2258 21.3622C98.785 22.7386 99.5648 24.545 99.5648 26.753C99.5648 28.9322 98.785 30.7386 97.2258 32.1148C95.6951 33.4627 93.7892 34.1508 91.479 34.1508C89.1688 34.1508 87.2628 33.4627 85.7033 32.1148C84.1728 30.7386 83.3931 28.9322 83.3931 26.753C83.3931 24.545 84.1728 22.7386 85.7033 21.3622ZM91.479 30.1652C93.2983 30.1652 94.7422 28.8173 94.7422 26.753C94.7422 24.6597 93.2983 23.2547 91.479 23.2547C89.6596 23.2547 88.2157 24.6597 88.2157 26.753C88.2157 28.8173 89.6886 30.1652 91.479 30.1652Z" fill="#35132D"/>
<path d="M110.452 19.269C108.43 19.269 106.9 20.1005 105.918 21.735H105.86L105.889 21.391V21.1902C105.889 20.1866 105.196 19.5844 103.896 19.5844H99.6226V23.5988H100.691C101.124 23.5988 101.297 23.7996 101.297 24.201V33.8067H106.12V27.4985C106.12 26.7816 106.207 26.1508 106.409 25.6347C106.871 24.2869 107.824 23.5988 109.239 23.5988C110.307 23.5988 110.827 24.2295 110.827 25.4625V31.7995C110.827 33.2045 111.434 33.8067 112.849 33.8067H115.621V24.6024C115.621 21.0182 113.888 19.269 110.452 19.269Z" fill="#35132D"/>
<path d="M119.057 14.0791V17.9501H123.1V14.0791H119.057ZM121.483 19.5845H117.036V23.5989H118.104C118.509 23.5989 118.711 23.7995 118.711 24.2009V31.7994C118.711 33.2046 119.317 33.8066 120.732 33.8066H123.505V21.6203C123.505 20.1867 122.898 19.5845 121.483 19.5845Z" fill="#35132D"/>
<path d="M127.23 21.391C128.587 19.9858 130.407 19.269 132.659 19.269C134.709 19.269 136.327 19.8999 137.51 21.1902C138.695 22.4519 139.301 24.1149 139.301 26.122C139.301 26.4661 139.272 26.9536 139.185 27.6131H130.147C130.493 29.2763 131.85 30.1652 133.497 30.1652C134.68 30.1652 136.009 29.7062 137.453 28.7314L139.243 32.0863C137.713 33.3766 135.345 34.1508 133.121 34.1508C130.695 34.1508 128.789 33.4053 127.374 31.9428C125.959 30.4805 125.266 28.7027 125.266 26.6955C125.208 24.5738 125.873 22.796 127.23 21.391ZM134.536 24.8891C134.536 23.6849 133.756 22.7672 132.572 22.7672C131.359 22.7672 130.58 23.4841 130.262 24.8891H134.536Z" fill="#35132D"/>
<path d="M141.005 19.8427H143.517V21.0757C143.517 21.6491 143.43 22.1366 143.43 22.1366H143.488C144.383 20.4447 146.174 19.4985 148.224 19.4985C152.036 19.4985 154.404 22.4806 154.404 26.8103C154.404 31.2548 151.718 34.1222 148.022 34.1222C146.232 34.1222 144.614 33.2332 143.661 31.7423H143.604C143.604 31.7423 143.719 32.2297 143.719 32.9465V39.3121H141.033V19.8427H141.005ZM147.618 31.8283C149.841 31.8283 151.69 30.0219 151.69 26.8676C151.69 23.8283 150.044 21.8784 147.704 21.8784C145.596 21.8784 143.633 23.3695 143.633 26.8964C143.633 29.3623 145.019 31.8283 147.618 31.8283Z" fill="#35132D"/>
<path d="M163.27 19.4985C167.486 19.4985 170.865 22.5666 170.865 26.7817C170.865 31.0255 167.457 34.1221 163.299 34.1221C159.083 34.1221 155.704 31.0255 155.704 26.7817C155.704 22.5666 159.111 19.4985 163.27 19.4985ZM163.299 31.8283C165.955 31.8283 168.15 29.7352 168.15 26.8103C168.15 23.9142 165.955 21.8499 163.299 21.8499C160.613 21.8499 158.447 23.9142 158.447 26.8103C158.476 29.7352 160.642 31.8283 163.299 31.8283Z" fill="#35132D"/>
<path d="M172.973 14.3086H175.745V17.0039H172.973V14.3086ZM173.03 19.8426H175.716V33.8356H173.03V19.8426Z" fill="#35132D"/>
<path d="M178.749 19.8427H181.377V21.7352C181.377 22.3086 181.29 22.7961 181.29 22.7961H181.348C181.867 21.5917 183.6 19.4985 186.69 19.4985C190.011 19.4985 191.513 21.305 191.513 24.8605V33.8069H188.827V25.4626C188.827 23.5128 188.452 21.9646 186.17 21.9646C183.427 21.9646 181.463 24.2297 181.463 27.097V33.8069H178.778V19.8427H178.749Z" fill="#35132D"/>
<path d="M195.007 22.1654H193.158V19.9862H195.064V16.0005H197.72V19.9862H201.129V22.1654H197.72V28.4163C197.72 31.1977 199.685 31.5703 200.725 31.5703C200.926 31.5703 201.099 31.5703 201.36 31.513V33.893C201.129 33.9216 200.839 33.9789 200.407 33.9789C198.588 33.9789 195.007 33.4055 195.007 28.7318V22.1654Z" fill="#35132D"/>
<path d="M81.8626 25.3765L80.9385 14.0791H75.3073C75.3073 14.0791 71.0044 22.7959 70.6579 23.9715H70.6001L66.095 14.0791H60.4639L59.5397 23.8856L58.76 33.8354H62.1965C63.6694 33.8354 64.2758 33.2046 64.3914 31.6562C64.3914 31.6562 64.9689 22.5379 64.8823 21.2189H64.9399L65.1133 21.8211C65.3443 22.6239 68.5498 30.3945 68.5498 30.3945H72.7659C72.7659 30.3945 75.9714 22.7385 76.3756 21.2189H76.4334L76.9244 31.6562C77.04 33.2046 77.6463 33.8354 79.1192 33.8354H82.5555L81.8626 25.3765Z" fill="#35132D"/>
<path d="M24.6175 48H24.4442C13.2395 47.9714 5.7312 45.6488 4.17178 44.215C2.52571 42.7527 0.359863 35.1829 0.359863 24.0001C0.359863 12.8459 2.52571 5.24731 4.17178 3.78494C5.7312 2.35126 13.2684 0.0286738 24.4442 0H24.6175C35.8223 0.0286738 43.3305 2.35126 44.8899 3.78494C46.536 5.24731 48.7018 12.8459 48.7018 24.0001C48.7018 35.1541 46.536 42.7527 44.8899 44.215C43.3305 45.6775 35.8223 48 24.6175 48Z" fill="#35132D"/>
<path d="M35.6779 25.4327L34.7537 14.2212H29.1802C29.1802 14.2212 24.9351 22.8521 24.5598 24.0277H24.502L20.0259 14.2212H14.4235L13.4994 23.9416L12.7197 33.8055H16.1273C17.6001 33.8055 18.1777 33.1747 18.2932 31.6263C18.2932 31.6263 18.8707 22.5939 18.7841 21.275H18.8419L19.0151 21.877C19.2462 22.68 22.4227 30.3933 22.4227 30.3933H26.61C26.61 30.3933 29.7867 22.7947 30.1909 21.275H30.2487L30.7397 31.6263C30.8553 33.1747 31.4616 33.8055 32.9055 33.8055H36.313L35.6779 25.4327Z" fill="white"/>
</g>
<defs>
<clipPath id="clip0_3134_2939">
<rect width="201" height="48" fill="white" transform="translate(0.359863)"/>
</clipPath>
</defs>
</svg>
