<svg width="147" height="48" viewBox="0 0 147 48" fill="none" xmlns="http://www.w3.org/2000/svg">
<g clip-path="url(#clip0_3141_3015)">
<path d="M40.8959 12.3101L20.6499 24.0001V47.3791L0.399902 35.6891V12.3101L20.6499 0.620117L40.8959 12.3101ZM30.9829 41.4281L40.8959 35.6901V24.2821L30.9829 30.0091V41.4281Z" fill="url(#paint0_linear_3141_3015)"/>
<path d="M63.6169 21.014C62.4049 20.9997 61.2248 21.4029 60.2749 22.156V21.343H58.3049V31.598H60.2649V24.531C60.6195 24.0404 61.0823 23.6382 61.6175 23.3555C62.1527 23.0728 62.7459 22.9173 63.3509 22.901C65.0459 22.901 66.0549 23.963 66.0549 25.811V31.598H68.0209V25.753C68.0259 22.905 66.2729 21.014 63.6169 21.014ZM74.9859 21.078C73.913 21.08 72.8648 21.4005 71.9742 21.9988C71.0836 22.5971 70.3906 23.4463 69.9831 24.4388C69.5756 25.4313 69.4719 26.5225 69.6852 27.574C69.8984 28.6255 70.419 29.5901 71.1809 30.3454C71.9429 31.1008 72.9119 31.613 73.9653 31.8171C75.0186 32.0211 76.1088 31.908 77.0978 31.4918C78.0867 31.0757 78.9299 30.3754 79.5204 29.4796C80.1109 28.5838 80.4223 27.5329 80.4149 26.46C80.4175 25.7484 80.2785 25.0434 80.0059 24.3861C79.7334 23.7287 79.3327 23.1322 78.8274 22.6312C78.322 22.1302 77.722 21.7348 77.0623 21.468C76.4027 21.2012 75.6965 21.0682 74.9849 21.077L74.9859 21.078ZM74.9859 30.073C74.5197 30.0685 74.059 29.9708 73.6311 29.7857C73.2031 29.6007 72.8164 29.332 72.4937 28.9954C72.171 28.6588 71.9188 28.2612 71.7519 27.8258C71.585 27.3904 71.5069 26.926 71.5219 26.46C71.4758 25.8638 71.5847 25.2658 71.838 24.7241C72.0914 24.1825 72.4805 23.7156 72.9677 23.3688C73.4549 23.022 74.0235 22.8072 74.6183 22.7452C75.213 22.6832 75.8137 22.7762 76.3619 23.015C77.0216 23.3033 77.575 23.79 77.9453 24.4075C78.3155 25.0249 78.4842 25.7423 78.4279 26.46C78.4426 26.9241 78.3648 27.3865 78.1992 27.8203C78.0335 28.254 77.7832 28.6506 77.463 28.9868C77.1427 29.3229 76.7588 29.5921 76.3335 29.7786C75.9083 29.9651 75.4502 30.0651 74.9859 30.073ZM84.1379 22.56V21.343H82.1779V31.598H84.1379V25.063C84.5074 24.447 85.027 23.9347 85.6481 23.5739C86.2693 23.2131 86.9718 23.0157 87.6899 23H87.9499V21.076H87.6849C87.0239 21.0697 86.3685 21.1979 85.7585 21.4529C85.1486 21.7078 84.5969 22.0842 84.1369 22.559L84.1379 22.56ZM93.6459 21.078C92.9393 21.0669 92.2378 21.1991 91.5837 21.4665C90.9296 21.7339 90.3365 22.1311 89.84 22.6341C89.3436 23.137 88.9543 23.7353 88.6954 24.3929C88.4366 25.0504 88.3136 25.7536 88.3339 26.46C88.3123 27.168 88.4342 27.8731 88.6922 28.5328C88.9502 29.1925 89.3391 29.7932 89.8354 30.2986C90.3317 30.8041 90.9251 31.2039 91.58 31.4739C92.2349 31.744 92.9376 31.8787 93.6459 31.87C95.8829 31.87 97.7159 30.721 98.3209 28.952L98.4429 28.596H96.3449L96.2709 28.75C95.8719 29.59 94.9049 30.094 93.6889 30.094C92.8853 30.1216 92.0998 29.8509 91.4839 29.3339C90.8679 28.8169 90.4651 28.0903 90.3529 27.294H98.3209L98.6079 27.438L98.6509 27.061C98.662 26.8468 98.662 26.6322 98.6509 26.418C98.6289 23.325 96.5519 21.078 93.6459 21.078ZM93.6039 22.852C95.2449 22.852 96.3819 23.915 96.6369 25.647H90.3529C90.4637 24.8663 90.8544 24.1524 91.4522 23.6382C92.0501 23.1241 92.8154 22.8447 93.6039 22.852ZM105.738 21.078C104.567 21.0639 103.424 21.4373 102.487 22.14V16.104H100.521V31.598H102.487V30.806C103.17 31.3056 103.962 31.6367 104.797 31.7724C105.633 31.9081 106.489 31.8446 107.295 31.587C108.102 31.3302 108.837 30.8865 109.44 30.2921C110.043 29.6977 110.497 28.9693 110.766 28.1662C111.034 27.3631 111.109 26.508 110.985 25.6705C110.86 24.8329 110.54 24.0365 110.05 23.346C109.56 22.6558 108.914 22.0907 108.165 21.6967C107.416 21.3026 106.584 21.0907 105.738 21.078ZM102.487 24.499C102.821 23.9872 103.279 23.5679 103.819 23.28C104.358 22.9921 104.962 22.8449 105.573 22.852C106.513 22.8742 107.407 23.2632 108.064 23.9359C108.721 24.6086 109.089 25.5117 109.089 26.452C109.089 27.3924 108.721 28.2954 108.064 28.9681C107.407 29.6408 106.513 30.0298 105.573 30.052C104.963 30.0617 104.361 29.9179 103.822 29.6337C103.283 29.3496 102.824 28.9342 102.487 28.426V24.499ZM120.851 22.119C120.249 21.6777 119.563 21.366 118.835 21.2035C118.107 21.041 117.353 21.0313 116.621 21.175C115.889 21.3187 115.195 21.6127 114.582 22.0383C113.97 22.464 113.452 23.0121 113.062 23.648C112.672 24.2837 112.417 24.9933 112.315 25.7321C112.213 26.4709 112.265 27.2229 112.467 27.9407C112.67 28.6585 113.019 29.3265 113.493 29.9026C113.967 30.4787 114.555 30.9504 115.22 31.288C116.109 31.7388 117.106 31.9344 118.1 31.8532C119.094 31.772 120.046 31.4171 120.851 30.828V31.598H122.817V21.343H120.851V22.119ZM120.851 28.495C120.512 28.9928 120.055 29.3988 119.521 29.677C118.988 29.9551 118.393 30.0967 117.791 30.089C117.096 30.0633 116.424 29.837 115.855 29.4373C115.286 29.0377 114.845 28.4818 114.585 27.8369C114.325 27.1919 114.257 26.4856 114.39 25.8031C114.523 25.1206 114.851 24.4912 115.334 23.991C115.98 23.3197 116.86 22.9248 117.791 22.889C118.393 22.8817 118.988 23.0235 119.521 23.3018C120.055 23.5801 120.512 23.9863 120.851 24.484V28.495ZM130.684 25.674L128.74 25.334C127.051 25.079 127.051 24.329 127.051 24.08C127.051 23.272 127.943 22.725 129.271 22.725C130.153 22.725 131.667 22.948 131.89 24.435L131.927 24.665H133.771V24.377C133.579 21.912 131.242 21.035 129.292 21.035C126.801 21.035 125.128 22.3 125.128 24.185C125.128 25.249 125.659 26.662 128.235 27.061L130.451 27.443C130.891 27.507 131.911 27.762 131.911 28.718C131.911 29.675 130.971 30.18 129.521 30.18C127.837 30.18 126.865 29.531 126.557 28.261L126.514 28.049H124.644L124.687 28.352C125.016 30.647 126.716 31.912 129.468 31.912C132.124 31.912 133.824 30.626 133.824 28.633C133.813 27.007 132.756 26.014 130.684 25.674ZM140.391 21.078C139.684 21.0672 138.983 21.1995 138.329 21.4669C137.675 21.7343 137.082 22.1313 136.585 22.634C136.088 23.1367 135.698 23.735 135.439 24.3926C135.18 25.0502 135.057 25.7535 135.078 26.46C135.057 27.168 135.179 27.873 135.437 28.5327C135.696 29.1923 136.084 29.7931 136.58 30.299C137.076 30.8046 137.67 31.2044 138.325 31.4742C138.98 31.744 139.683 31.8783 140.391 31.869C142.627 31.869 144.46 30.721 145.065 28.952L145.188 28.596H143.089L143.015 28.75C142.616 29.59 141.65 30.094 140.433 30.094C139.629 30.1218 138.844 29.8512 138.228 29.3341C137.612 28.8171 137.209 28.0904 137.097 27.294H145.065L145.352 27.438L145.395 27.061C145.417 26.847 145.426 26.632 145.421 26.418C145.374 23.325 143.27 21.078 140.391 21.078ZM140.348 22.852C141.99 22.852 143.126 23.915 143.381 25.647H137.097C137.208 24.8663 137.599 24.1525 138.197 23.6384C138.795 23.1243 139.559 22.8448 140.348 22.852Z" fill="#35132D"/>
</g>
<defs>
<linearGradient id="paint0_linear_3141_3015" x1="10.5249" y1="41.5451" x2="30.7769" y2="6.46912" gradientUnits="userSpaceOnUse">
<stop stop-color="#956C8A"/>
<stop offset="1" stop-color="#35132D"/>
</linearGradient>
<clipPath id="clip0_3141_3015">
<rect width="146" height="48" fill="white" transform="translate(0.399902)"/>
</clipPath>
</defs>
</svg>
