<svg width="24" height="25" viewBox="0 0 24 25" fill="none" xmlns="http://www.w3.org/2000/svg">
<path d="M12.6609 3.01814L12.6309 3.08814L9.73094 9.81814H6.88094C6.20094 9.81814 5.55094 9.95814 4.96094 10.2081L6.71094 6.02814L6.75094 5.92814L6.82094 5.76814C6.84094 5.70814 6.86094 5.64814 6.89094 5.59814C8.20094 2.56814 9.68094 1.87814 12.6609 3.01814Z" stroke="#612351" stroke-width="1.5" stroke-linecap="round" stroke-linejoin="round"/>
<path d="M18.0505 10.0186C17.6005 9.87856 17.1205 9.81855 16.6405 9.81855H9.73047L12.6305 3.08855L12.6605 3.01855C12.8105 3.06855 12.9505 3.13855 13.1005 3.19855L15.3105 4.12855C16.5405 4.63855 17.4005 5.16855 17.9205 5.80855C18.0205 5.92855 18.1005 6.03855 18.1705 6.16855C18.2605 6.30855 18.3305 6.44855 18.3705 6.59855C18.4105 6.68855 18.4405 6.77855 18.4605 6.85855C18.7305 7.69855 18.5705 8.72856 18.0505 10.0186Z" stroke="#612351" stroke-width="1.5" stroke-linecap="round" stroke-linejoin="round"/>
<path d="M21.5217 14.6984V16.6484C21.5217 16.8484 21.5117 17.0484 21.5017 17.2484C21.3117 20.7384 19.3617 22.4984 15.6617 22.4984H7.86172C7.62172 22.4984 7.38172 22.4784 7.15172 22.4484C3.97172 22.2384 2.27172 20.5384 2.06172 17.3584C2.03172 17.1284 2.01172 16.8884 2.01172 16.6484V14.6984C2.01172 12.6884 3.23172 10.9584 4.97172 10.2084C5.57172 9.95836 6.21172 9.81836 6.89172 9.81836H16.6517C17.1417 9.81836 17.6217 9.88836 18.0617 10.0184C20.0517 10.6284 21.5217 12.4884 21.5217 14.6984Z" stroke="#612351" stroke-width="1.5" stroke-linecap="round" stroke-linejoin="round"/>
<path d="M6.71 6.02832L4.96 10.2083C3.22 10.9583 2 12.6883 2 14.6983V11.7683C2 8.92832 4.02 6.55832 6.71 6.02832Z" stroke="#612351" stroke-width="1.5" stroke-linecap="round" stroke-linejoin="round"/>
<path d="M21.5186 11.7677V14.6977C21.5186 12.4977 20.0586 10.6277 18.0586 10.0277C18.5786 8.72766 18.7286 7.70766 18.4786 6.85766C18.4586 6.76766 18.4286 6.67766 18.3886 6.59766C20.2486 7.55766 21.5186 9.52766 21.5186 11.7677Z" stroke="#612351" stroke-width="1.5" stroke-linecap="round" stroke-linejoin="round"/>
</svg>
