<svg width="24" height="25" viewBox="0 0 24 25" fill="none" xmlns="http://www.w3.org/2000/svg">
<path d="M11.75 4.25V3.75H11.25H10C9.86614 3.75 9.75 3.63386 9.75 3.5C9.75 3.36614 9.86614 3.25 10 3.25H14C14.1339 3.25 14.25 3.36614 14.25 3.5C14.25 3.63386 14.1339 3.75 14 3.75H12.75H12.25V4.25V9C12.25 9.13386 12.1339 9.25 12 9.25C11.8661 9.25 11.75 9.13386 11.75 9V4.25Z" fill="#612351" stroke="#612351"/>
<path d="M14 20.75H12.75V16C12.75 15.59 12.41 15.25 12 15.25C11.59 15.25 11.25 15.59 11.25 16V20.75H10C9.59 20.75 9.25 21.09 9.25 21.5C9.25 21.91 9.59 22.25 10 22.25H14C14.41 22.25 14.75 21.91 14.75 21.5C14.75 21.09 14.41 20.75 14 20.75Z" fill="#612351"/>
<path d="M2.83036 10.3799C2.95036 10.4499 3.08036 10.4799 3.20036 10.4799C3.46036 10.4799 3.71036 10.3499 3.85036 10.0999L4.48036 9.01994L8.60037 11.3999C8.71037 11.4699 8.84036 11.4999 8.97037 11.4999C9.23036 11.4999 9.48036 11.3699 9.62036 11.1199C9.83036 10.7699 9.70037 10.3099 9.35037 10.0999L5.23036 7.71993L5.85036 6.63993C6.06036 6.27993 5.93036 5.81993 5.58036 5.61993C5.22036 5.40993 4.76036 5.52993 4.56036 5.88993L2.56036 9.34994C2.35036 9.71994 2.47036 10.1699 2.83036 10.3799Z" fill="#612351"/>
<path d="M21.1704 14.6202C20.8104 14.4102 20.3504 14.5302 20.1504 14.8902L19.5204 15.9702L15.4004 13.6002C15.0404 13.3902 14.5804 13.5202 14.3804 13.8702C14.1704 14.2302 14.3004 14.6902 14.6504 14.8902L18.7604 17.2702L18.1404 18.3502C17.9304 18.7102 18.0604 19.1702 18.4104 19.3702C18.5304 19.4402 18.6604 19.4702 18.7804 19.4702C19.0404 19.4702 19.2904 19.3402 19.4304 19.0902L21.4304 15.6302C21.6504 15.2802 21.5304 14.8302 21.1704 14.6202Z" fill="#612351"/>
<path d="M18.7697 7.7197L14.6497 10.0997C14.2897 10.3097 14.1697 10.7697 14.3797 11.1197C14.5197 11.3597 14.7697 11.4997 15.0297 11.4997C15.1597 11.4997 15.2897 11.4697 15.3997 11.3997L19.5097 9.0197L20.1397 10.0997C20.2797 10.3397 20.5297 10.4797 20.7897 10.4797C20.9197 10.4797 21.0497 10.4497 21.1597 10.3797C21.5197 10.1697 21.6397 9.7097 21.4297 9.3597L19.4297 5.8997C19.2197 5.5397 18.7597 5.4197 18.4097 5.6297C18.0497 5.8397 17.9297 6.2997 18.1397 6.6497L18.7697 7.7197Z" fill="#612351"/>
<path d="M5.23036 17.2802L9.34036 14.9002C9.70037 14.6902 9.82036 14.2302 9.61036 13.8802C9.40036 13.5202 8.94036 13.4002 8.59036 13.6102L4.48036 15.9902L3.85036 14.9102C3.64036 14.5502 3.18036 14.4302 2.83036 14.6402C2.47036 14.8502 2.35036 15.3102 2.56036 15.6602L4.56036 19.1202C4.70036 19.3602 4.95036 19.5002 5.21036 19.5002C5.34036 19.5002 5.47036 19.4702 5.58036 19.4002C5.94036 19.1902 6.06036 18.7302 5.85036 18.3802L5.23036 17.2802Z" fill="#612351"/>
<path d="M15.5 12.5C15.5 13.14 15.33 13.73 15.03 14.25C14.42 15.3 13.29 16 12 16C10.71 16 9.58 15.3 8.97 14.25C8.67 13.73 8.5 13.14 8.5 12.5C8.5 11.86 8.67 11.27 8.97 10.75C9.58 9.7 10.71 9 12 9C13.29 9 14.42 9.7 15.03 10.75C15.33 11.27 15.5 11.86 15.5 12.5Z" fill="#612351"/>
</svg>
