<svg width="24" height="25" viewBox="0 0 24 25" fill="none" xmlns="http://www.w3.org/2000/svg">
<path d="M12 18.7002C14.2091 18.7002 16 16.9093 16 14.7002C16 12.4911 14.2091 10.7002 12 10.7002C9.79086 10.7002 8 12.4911 8 14.7002C8 16.9093 9.79086 18.7002 12 18.7002Z" stroke="#612351" stroke-width="1.5" stroke-miterlimit="10" stroke-linecap="round" stroke-linejoin="round"/>
<path d="M10.4395 14.8003L11.0895 15.4503C11.2795 15.6403 11.5895 15.6403 11.7795 15.4603L13.5595 13.8203" stroke="#612351" stroke-width="1.5" stroke-linecap="round" stroke-linejoin="round"/>
<path d="M8.0008 22.5H16.0008C20.0208 22.5 20.7408 20.89 20.9508 18.93L21.7008 10.93C21.9708 8.49 21.2708 6.5 17.0008 6.5H7.0008C2.7308 6.5 2.0308 8.49 2.3008 10.93L3.0508 18.93C3.2608 20.89 3.9808 22.5 8.0008 22.5Z" stroke="#612351" stroke-width="1.5" stroke-miterlimit="10" stroke-linecap="round" stroke-linejoin="round"/>
<path d="M8 6.5V5.7C8 3.93 8 2.5 11.2 2.5H12.8C16 2.5 16 3.93 16 5.7V6.5" stroke="#612351" stroke-width="1.5" stroke-miterlimit="10" stroke-linecap="round" stroke-linejoin="round"/>
<path d="M21.6498 11.5C19.9198 12.76 17.9998 13.64 16.0098 14.14" stroke="#612351" stroke-width="1.5" stroke-miterlimit="10" stroke-linecap="round" stroke-linejoin="round"/>
<path d="M2.61914 11.7695C4.28914 12.9095 6.10914 13.7195 7.99914 14.1795" stroke="#612351" stroke-width="1.5" stroke-miterlimit="10" stroke-linecap="round" stroke-linejoin="round"/>
</svg>
